<?xml version="1.0" standalone="no"?>
<!DOCTYPE svg PUBLIC "-//W3C//DTD SVG 20010904//EN"
 "http://www.w3.org/TR/2001/REC-SVG-20010904/DTD/svg10.dtd">
<svg version="1.0" xmlns="http://www.w3.org/2000/svg"
 width="500.000000pt" height="500.000000pt" viewBox="0 0 500.000000 500.000000"
 preserveAspectRatio="xMidYMid meet">

<g transform="translate(0.000000,500.000000) scale(0.100000,-0.100000)"
fill="#000000" stroke="none">
<path d="M2445 4571 c-197 -32 -352 -136 -424 -283 -17 -35 -40 -101 -52 -148
-23 -93 -28 -229 -20 -570 8 -322 -30 -422 -291 -763 -269 -352 -407 -673
-412 -958 l-2 -116 -67 -85 c-75 -96 -87 -106 -172 -137 -143 -53 -196 -109
-198 -208 -1 -32 2 -105 7 -163 7 -92 6 -114 -13 -180 -35 -124 -24 -190 38
-243 42 -35 110 -54 261 -72 162 -20 254 -43 365 -93 145 -65 230 -85 349 -80
136 6 193 35 283 145 15 18 43 26 163 47 216 37 270 40 405 22 66 -9 158 -18
205 -22 l86 -7 18 -43 c25 -60 101 -138 161 -166 72 -33 216 -32 295 2 86 37
164 94 248 181 90 94 131 122 307 214 72 37 145 79 163 92 45 34 72 80 72 123
0 46 -47 142 -103 209 -43 51 -56 84 -97 236 -16 63 -52 117 -96 147 l-41 27
15 53 c11 38 16 100 16 223 0 157 -2 177 -28 260 -37 121 -94 249 -162 363
-53 89 -113 171 -315 432 -97 126 -149 213 -180 300 -21 59 -23 91 -30 350 -8
312 -21 420 -69 551 -64 177 -160 275 -329 337 -53 19 -90 25 -186 27 -66 2
-142 0 -170 -4z m311 -581 c77 -38 127 -135 127 -250 1 -60 -5 -86 -26 -133
-14 -31 -29 -57 -34 -57 -8 0 -95 31 -102 37 -2 1 4 12 14 23 12 14 20 41 23
78 11 148 -100 216 -158 98 -11 -23 -20 -61 -20 -84 l0 -41 -52 18 -53 18 -3
47 c-4 62 22 144 60 190 60 73 144 94 224 56z m-534 -38 c61 -40 98 -119 98
-207 0 -51 -1 -52 -39 -67 l-39 -16 -6 51 c-5 36 -15 58 -37 79 -33 34 -44 33
-73 -6 -29 -38 -28 -119 1 -169 l22 -36 -26 -21 c-32 -25 -43 -17 -74 53 -34
75 -34 202 0 270 39 79 113 109 173 69z m360 -334 c51 -26 124 -59 161 -73 38
-13 81 -34 97 -45 37 -27 54 -77 40 -116 -24 -61 -59 -93 -168 -147 -59 -29
-133 -69 -166 -87 -45 -25 -74 -34 -126 -38 -80 -5 -130 13 -203 76 -27 23
-69 56 -95 73 -65 43 -102 93 -102 138 1 44 9 56 85 111 33 24 79 62 103 83
69 61 114 78 204 75 68 -3 86 -8 170 -50z m457 -738 c34 -85 101 -233 148
-329 101 -206 143 -313 173 -437 l23 -92 40 -6 c47 -8 52 -3 67 67 26 124 0
267 -76 420 -32 63 -102 163 -138 196 -26 24 -35 51 -17 51 16 0 101 -102 157
-187 63 -94 107 -194 130 -290 17 -70 23 -231 10 -270 -6 -19 2 -26 71 -63 88
-46 122 -73 158 -126 34 -49 33 -124 -1 -124 -9 0 -14 11 -14 30 0 65 -42 111
-158 169 -181 91 -317 72 -337 -49 -4 -22 -12 -40 -19 -40 -7 0 -35 -19 -61
-42 -81 -72 -116 -183 -131 -428 -4 -71 -17 -153 -33 -214 l-27 -99 -84 -49
c-147 -84 -257 -118 -411 -125 -133 -7 -230 12 -346 68 -58 28 -90 50 -110 77
-15 20 -45 58 -66 84 l-38 47 28 6 c108 23 140 93 89 200 -49 105 -156 209
-338 329 -48 32 -106 78 -128 103 -167 190 -140 451 88 847 68 118 63 72 -7
-68 -140 -279 -162 -454 -79 -626 l31 -65 9 60 c34 237 59 318 196 620 149
330 210 509 228 664 3 33 9 61 13 61 8 0 91 -58 155 -110 94 -74 206 -78 330
-12 39 21 85 46 101 54 17 9 59 30 95 47 36 16 78 44 95 61 l29 31 47 -143
c25 -79 74 -213 108 -298z m-1552 -1176 c60 -35 86 -71 198 -274 62 -112 132
-222 183 -288 180 -230 216 -300 210 -397 -5 -87 -44 -150 -118 -190 -46 -24
-70 -30 -141 -33 -107 -5 -203 17 -344 81 -117 52 -192 71 -372 92 -266 31
-300 67 -248 269 l26 104 -16 110 c-28 189 -3 228 188 297 63 22 95 51 169
147 92 121 162 143 265 82z m1791 -24 c15 -69 59 -133 112 -162 70 -38 205 0
307 86 35 31 49 36 90 36 68 0 132 -34 160 -85 12 -22 29 -73 38 -115 23 -102
42 -143 108 -229 71 -91 87 -138 64 -186 -19 -41 -46 -58 -237 -156 -137 -70
-151 -80 -265 -190 -130 -125 -182 -161 -276 -190 -147 -46 -274 -2 -344 117
-51 87 -44 172 38 464 27 96 37 159 46 275 13 173 32 262 67 322 22 37 58 73
74 73 3 0 12 -27 18 -60z"/>
<path d="M2288 3599 c-24 -14 -23 -29 3 -29 28 0 61 19 54 31 -8 12 -35 11
-57 -2z"/>
<path d="M2450 3596 c0 -13 28 -26 58 -26 21 0 13 27 -10 34 -36 9 -48 7 -48
-8z"/>
<path d="M2757 3446 c-6 -16 -111 -93 -177 -129 -69 -37 -149 -60 -212 -60
-76 0 -165 43 -238 117 -51 51 -70 60 -70 34 0 -19 103 -107 163 -139 70 -37
159 -48 234 -30 110 28 322 159 331 204 4 20 -23 23 -31 3z"/>
</g>
</svg>
